<svg width="138" height="94" viewBox="0 0 138 94" fill="none" xmlns="http://www.w3.org/2000/svg">
<path d="M3.0808 53.1267C4.42225 54.1796 5.8215 54.7463 7.50735 54.7463C9.46533 54.7463 10.6382 53.9377 10.6382 52.6595C10.6382 51.3813 9.73266 50.632 6.9751 50.0865C2.34385 49.1522 0.0390625 46.8425 0.0390625 43.3565C0.0390625 39.8326 3.10489 37.2383 7.74577 37.2383C11.9676 37.2383 14.6409 39.2445 15.7126 42.4245C16.0016 43.2972 15.4862 43.864 14.559 43.864H11.8279C11.0693 43.864 10.7177 43.4988 10.3299 42.8514C9.84826 42.0997 9.07277 41.6941 8.02273 41.6941C6.68369 41.6941 5.57103 42.3629 5.57103 43.4395C5.57103 44.5161 6.58013 45.4647 8.97162 45.9508C13.9111 46.9444 16.1726 49.1735 16.1726 52.7188C16.1726 56.43 13.0249 59.2069 7.74336 59.2069C4.9256 59.2069 2.57746 58.0212 0.561673 55.7589C0.00534523 55.1542 0.0679641 54.5258 0.605025 53.9377L1.24083 53.2263C1.79716 52.5979 2.41369 52.5789 3.09044 53.1267" fill="white"/>
<path d="M29.0011 37.2383C35.795 37.2383 40.8381 42.0807 40.8381 48.2226C40.8381 54.3645 35.795 59.2046 29.0011 59.2046C22.2071 59.2046 17.1641 54.3622 17.1641 48.2226C17.1641 42.0831 22.2216 37.2383 29.0011 37.2383ZM29.0011 54.2815C30.2188 54.282 31.4093 53.9269 32.4219 53.261C33.4346 52.5952 34.224 51.6486 34.6902 50.5409C35.1564 49.4332 35.2785 48.2143 35.0411 47.0383C34.8036 45.8623 34.2173 44.7821 33.3562 43.9343C32.4952 43.0864 31.3981 42.5091 30.2038 42.2753C29.0095 42.0415 27.7716 42.1617 26.6467 42.6208C25.5218 43.0798 24.5604 43.8571 23.8842 44.8542C23.208 45.8514 22.8473 47.0236 22.8478 48.2226C22.8347 49.0218 22.985 49.8154 23.2896 50.5563C23.5943 51.2972 24.047 51.9703 24.621 52.5355C25.195 53.1007 25.8786 53.5465 26.631 53.8464C27.3834 54.1464 28.1894 54.2944 29.0011 54.2815Z" fill="white"/>
<path d="M43.7158 29.125H46.7407C47.586 29.125 48.0581 29.5993 48.0581 30.4245V57.4301C48.0581 58.2624 47.5764 58.7296 46.7407 58.7296H43.7158C42.8705 58.7296 42.3984 58.2553 42.3984 57.4301V30.4245C42.3984 29.5922 42.8801 29.125 43.7158 29.125Z" fill="white"/>
<path d="M59.9377 37.2383C62.9216 37.2383 65.3324 38.3694 67.0399 40.2357V39.0216C67.0399 38.1892 67.5216 37.7244 68.3548 37.7244H71.3195C72.1648 37.7244 72.6369 38.1987 72.6369 39.0216V57.4331C72.6369 58.2655 72.1552 58.7327 71.3195 58.7327H68.3452C67.5023 58.7327 67.0303 58.2584 67.0303 57.4331V56.2214C65.3227 58.0829 62.912 59.2164 59.928 59.2164C53.9794 59.2164 49.6348 54.374 49.6348 48.2345C49.6348 42.0949 53.9698 37.2501 59.928 37.2501L59.9377 37.2383ZM61.1443 54.2934C64.4341 54.2934 67.0303 51.6611 67.0303 48.2345C67.0303 44.8078 64.4437 42.1613 61.1539 42.1613C57.8641 42.1613 55.3257 44.8149 55.3257 48.2226C55.3257 51.6303 57.8761 54.2815 61.1539 54.2815" fill="white"/>
<path d="M81.2944 47.5929V57.4319C81.2944 58.2642 80.8127 58.7314 79.977 58.7314H76.9497C76.1068 58.7314 75.6348 58.2571 75.6348 57.4319V39.0298C75.6348 38.1998 76.1164 37.7326 76.9497 37.7326H79.977C80.8223 37.7326 81.2944 38.2069 81.2944 39.0298V40.308C82.6551 38.5223 84.5456 37.2465 86.9949 37.2465C87.279 37.2424 87.5626 37.2702 87.8403 37.3295C88.6013 37.4694 88.9096 38.0789 88.8494 38.8282L88.6615 41.1783C88.582 42.051 88.045 42.3758 87.1394 42.2312C86.8535 42.194 86.5656 42.1742 86.2772 42.1719C83.5582 42.1719 81.2944 44.3417 81.2944 47.6048" fill="white"/>
<path d="M3.03933 79.0386C4.37115 80.0892 5.76799 80.6583 7.45142 80.6583C9.40218 80.6583 10.5702 79.8497 10.5702 78.5762C10.5702 77.3028 9.66951 76.5534 6.91918 76.008C2.29756 75.0784 0 72.7734 0 69.2969C0 65.7825 3.0586 63.1953 7.67781 63.1953C11.8852 63.1953 14.5536 65.1944 15.6253 68.3673C15.9143 69.2376 15.4014 69.802 14.479 69.802H11.7527C10.9917 69.802 10.6449 69.4392 10.2547 68.7918C9.77307 68.0448 9.0024 67.6417 7.95477 67.6417C6.62054 67.6417 5.5127 68.3057 5.5127 69.3776C5.5127 70.4897 6.51939 71.4004 8.89884 71.8841C13.8263 72.8754 16.0853 75.0974 16.0853 78.6355C16.0853 82.3373 12.9545 85.1047 7.66817 85.1047C4.85522 85.1047 2.51431 83.919 0.503343 81.6685C-0.0481678 81.0615 0.0216761 80.4354 0.546695 79.8497L1.18009 79.1382C1.73401 78.5122 2.35055 78.4909 3.0297 79.0363" fill="white"/>
<path d="M27.3484 63.1914C30.3251 63.1914 32.7262 64.3249 34.4313 66.1817V64.97C34.4313 64.1423 34.913 63.6752 35.7438 63.6752H38.6989C39.5418 63.6752 40.0138 64.1495 40.0138 64.97V92.7154C40.0138 93.543 39.5322 94.0078 38.6989 94.0078H35.7438C34.9033 94.0078 34.4313 93.5335 34.4313 92.7154V82.1128C32.7262 83.9696 30.3251 85.1055 27.3484 85.1055C21.4142 85.1055 17.084 80.2702 17.084 74.1473C17.084 68.0243 21.419 63.1914 27.3484 63.1914ZM28.5525 80.192C31.8375 80.192 34.4265 77.5621 34.4265 74.1473C34.4265 70.7325 31.8423 68.1026 28.5573 68.1026C25.2724 68.1026 22.7508 70.7491 22.7508 74.1449C22.7508 77.5408 25.294 80.1967 28.5573 80.1967" fill="white"/>
<path d="M42.582 76.6418V64.9721C42.582 64.1445 43.0637 63.6797 43.8946 63.6797H46.9171C47.76 63.6797 48.232 64.154 48.232 64.9721V76.0513C48.232 78.3729 50.0792 80.1941 52.2539 80.1941C54.9248 80.1941 57.0706 78.1334 57.0706 74.8371V64.9721C57.0706 64.1445 57.5523 63.6797 58.3832 63.6797H61.4008C62.2438 63.6797 62.7158 64.154 62.7158 64.9721V83.3268C62.7158 84.1544 62.2341 84.6215 61.4008 84.6215H58.3856C57.5451 84.6215 57.0731 84.1473 57.0731 83.3268V82.2952C56.3373 83.1769 55.4118 83.8865 54.3635 84.3729C53.3151 84.8593 52.1701 85.1103 51.0112 85.1077C46.0236 85.1077 42.582 81.7095 42.582 76.637" fill="white"/>
<path d="M74.5725 63.1914C77.5468 63.1914 79.9528 64.3249 81.6555 66.1817V64.97C81.6555 64.1423 82.1371 63.6752 82.9704 63.6752H85.9254C86.766 63.6752 87.238 64.1495 87.238 64.97V83.3222C87.238 84.1522 86.7563 84.617 85.9254 84.617H82.9704C82.1275 84.617 81.6555 84.1427 81.6555 83.3222V82.1128C79.9528 83.9696 77.5468 85.1055 74.5725 85.1055C68.6407 85.1055 64.3105 80.2702 64.3105 74.1473C64.3105 68.0243 68.6456 63.1914 74.5725 63.1914ZM75.7767 80.192C79.0592 80.192 81.6482 77.5621 81.6482 74.1473C81.6482 70.7325 79.0665 68.1026 75.7839 68.1026C72.5013 68.1026 69.9774 70.7491 69.9774 74.1449C69.9774 77.5408 72.5182 80.1967 75.7839 80.1967" fill="white"/>
<path d="M95.8874 73.5232V83.3242C95.8874 84.1542 95.4057 84.619 94.5748 84.619H91.5547C90.7142 84.619 90.2422 84.1447 90.2422 83.3242V64.9719C90.2422 64.142 90.7239 63.6772 91.5547 63.6772H94.5748C95.4177 63.6772 95.8874 64.1514 95.8874 64.9719V66.2454C97.2432 64.4668 99.1314 63.1958 101.576 63.1958C101.857 63.1915 102.138 63.2177 102.414 63.274C103.177 63.4163 103.483 64.0234 103.421 64.7704L103.238 67.1157C103.156 67.9836 102.621 68.3014 101.718 68.1662C101.436 68.1264 101.152 68.1058 100.868 68.1046C98.1584 68.1046 95.8994 70.2673 95.8994 73.5208" fill="white"/>
<path d="M114.723 80.6719C117.167 80.6719 119.058 79.9865 120.758 78.6704C121.416 78.1653 122.052 78.1961 122.625 78.751L123.631 79.7423C124.229 80.328 124.272 80.9967 123.672 81.5825C122.497 82.7253 121.102 83.6252 119.568 84.2292C118.035 84.8332 116.394 85.129 114.742 85.0993C107.476 85.0993 102.652 80.2663 102.652 74.1434C102.652 68.0204 107.621 63.1875 114.212 63.1875C120.715 63.1875 125.361 67.9303 125.361 73.7782C125.361 74.0438 125.339 74.3473 125.32 74.6295C125.235 75.4168 124.701 75.7986 123.901 75.7986H108.36C108.854 78.7131 111.315 80.6719 114.723 80.6719ZM108.505 71.8408H119.544C118.923 69.3579 116.919 67.6291 114.169 67.6291C112.884 67.6215 111.633 68.0315 110.609 68.7956C109.584 69.5596 108.845 70.635 108.505 71.855" fill="white"/>
<path d="M101.398 8.18727V2.98678C101.399 2.73206 101.339 2.48062 101.223 2.25311C101.106 2.02561 100.937 1.82853 100.728 1.67807C100.519 1.52762 100.277 1.42807 100.022 1.38762C99.7666 1.34717 99.5051 1.36696 99.2589 1.44537C96.7353 2.26853 94.3407 3.43466 92.1447 4.90999C91.9261 5.05899 91.7479 5.25828 91.6253 5.49053C91.5028 5.72279 91.4396 5.98099 91.4414 6.24272V8.18727C91.4414 8.61516 91.6139 9.02557 91.921 9.32835C92.228 9.63114 92.6446 9.80157 93.0791 9.80219H99.755C99.9706 9.80251 100.184 9.76096 100.383 9.67994C100.583 9.59893 100.764 9.48002 100.916 9.33003C101.069 9.18004 101.19 9.00191 101.272 8.80582C101.355 8.60974 101.398 8.39954 101.398 8.18727Z" fill="#00BDFF"/>
<path d="M113.328 8.18851V1.8213C113.325 1.42384 113.175 1.04101 112.906 0.744885C112.637 0.448758 112.267 0.259765 111.866 0.213488C109.529 -0.0711628 107.165 -0.0711628 104.829 0.213488C104.428 0.25981 104.058 0.448891 103.789 0.745071C103.521 1.04125 103.371 1.42406 103.369 1.8213V8.18851C103.369 8.61641 103.542 9.02681 103.849 9.3296C104.156 9.63239 104.572 9.80281 105.007 9.80344H111.683C111.898 9.80375 112.112 9.76223 112.311 9.68124C112.511 9.60025 112.692 9.48138 112.845 9.33142C112.998 9.18146 113.119 9.00335 113.202 8.80724C113.285 8.61114 113.327 8.4009 113.328 8.18851Z" fill="#00BDFF"/>
<path d="M125.251 8.18727V6.24272C125.253 5.98099 125.19 5.72279 125.067 5.49053C124.945 5.25828 124.766 5.05899 124.548 4.90999C122.352 3.43421 119.957 2.26804 117.434 1.44537C117.187 1.36696 116.926 1.34717 116.67 1.38762C116.415 1.42807 116.173 1.52762 115.964 1.67807C115.756 1.82853 115.586 2.02561 115.47 2.25311C115.353 2.48062 115.293 2.73206 115.295 2.98678V8.18727C115.295 8.39923 115.337 8.60918 115.419 8.80509C115.501 9.00101 115.622 9.17906 115.774 9.32905C115.926 9.47904 116.107 9.59803 116.305 9.67922C116.504 9.7604 116.717 9.80219 116.933 9.80219H123.609C123.824 9.80251 124.038 9.76096 124.237 9.67994C124.436 9.59893 124.617 9.48002 124.77 9.33003C124.922 9.18004 125.043 9.00191 125.126 8.80582C125.209 8.60974 125.251 8.39954 125.251 8.18727Z" fill="#00BDFF"/>
<path d="M87.8415 11.7461H85.8666C85.6005 11.7446 85.338 11.8068 85.1018 11.9274C84.8656 12.0481 84.6627 12.2235 84.5107 12.4386C83.014 14.6022 81.8291 16.9597 80.9897 19.4437C80.9111 19.6864 80.8919 19.944 80.9336 20.1954C80.9754 20.4469 81.0771 20.685 81.2302 20.8904C81.3833 21.0957 81.5836 21.2625 81.8147 21.3771C82.0459 21.4916 82.3012 21.5507 82.56 21.5495H87.8415C88.0569 21.5498 88.2703 21.5083 88.4695 21.4272C88.6686 21.3462 88.8495 21.2272 89.0019 21.0772C89.1542 20.9272 89.275 20.749 89.3573 20.5529C89.4397 20.3569 89.4819 20.1467 89.4815 19.9346V13.361C89.4809 12.9329 89.3079 12.5225 89.0005 12.2198C88.693 11.9171 88.2762 11.7467 87.8415 11.7461Z" fill="#00BDFF"/>
<path d="M93.0815 11.7461H99.7574C100.192 11.7461 100.61 11.9162 100.917 12.2191C101.225 12.522 101.398 12.9327 101.398 13.361V19.9345C101.398 20.1467 101.356 20.3568 101.273 20.5529C101.191 20.749 101.07 20.9271 100.918 21.0772C100.765 21.2272 100.585 21.3461 100.385 21.4272C100.186 21.5082 99.9729 21.5498 99.7574 21.5495H93.0815C92.866 21.5498 92.6526 21.5082 92.4535 21.4272C92.2543 21.3461 92.0734 21.2272 91.9211 21.0772C91.7687 20.9271 91.6479 20.749 91.5656 20.5529C91.4833 20.3568 91.4411 20.1467 91.4414 19.9345V13.361C91.442 12.9329 91.615 12.5225 91.9225 12.2198C92.2299 11.9171 92.6467 11.7467 93.0815 11.7461Z" fill="#00BDFF"/>
<path d="M105.007 11.7461H111.695C112.13 11.7461 112.547 11.9162 112.855 12.2191C113.163 12.522 113.335 12.9327 113.335 13.361V19.9345C113.336 20.1467 113.293 20.3568 113.211 20.5529C113.129 20.749 113.008 20.9271 112.856 21.0772C112.703 21.2272 112.522 21.3461 112.323 21.4272C112.124 21.5082 111.911 21.5498 111.695 21.5495H105.007C104.792 21.5498 104.578 21.5082 104.379 21.4272C104.18 21.3461 103.999 21.2272 103.847 21.0772C103.695 20.9271 103.574 20.749 103.491 20.5529C103.409 20.3568 103.367 20.1467 103.367 19.9345V13.361C103.368 12.9329 103.541 12.5225 103.848 12.2198C104.156 11.9171 104.572 11.7467 105.007 11.7461Z" fill="#00BDFF"/>
<path d="M87.8419 23.4883H81.3755C80.9716 23.4907 80.5825 23.6384 80.2814 23.9034C79.9802 24.1685 79.7878 24.5328 79.7402 24.9277C79.4538 27.2281 79.4538 29.5542 79.7402 31.8546C79.7878 32.2493 79.9804 32.6133 80.2815 32.878C80.5827 33.1427 80.9718 33.2898 81.3755 33.2917H87.8419C88.0574 33.292 88.2708 33.2504 88.4699 33.1694C88.669 33.0883 88.85 32.9694 89.0023 32.8194C89.1547 32.6693 89.2755 32.4912 89.3578 32.2951C89.4401 32.099 89.4823 31.8889 89.482 31.6767V25.1032C89.482 24.6749 89.3092 24.2641 89.0016 23.9613C88.694 23.6584 88.2769 23.4883 87.8419 23.4883Z" fill="#00BDFF"/>
<path d="M93.0815 23.4883H99.7574C99.9729 23.488 100.186 23.5295 100.385 23.6106C100.585 23.6916 100.765 23.8106 100.918 23.9606C101.07 24.1106 101.191 24.2888 101.273 24.4848C101.356 24.6809 101.398 24.891 101.398 25.1032V31.6767C101.398 31.8889 101.356 32.099 101.273 32.2951C101.191 32.4912 101.07 32.6693 100.918 32.8194C100.765 32.9694 100.585 33.0883 100.385 33.1694C100.186 33.2504 99.9729 33.292 99.7574 33.2917H93.0815C92.866 33.292 92.6526 33.2504 92.4535 33.1694C92.2543 33.0883 92.0734 32.9694 91.9211 32.8194C91.7687 32.6693 91.6479 32.4912 91.5656 32.2951C91.4833 32.099 91.4411 31.8889 91.4414 31.6767V25.1032C91.4414 24.6749 91.6142 24.2641 91.9218 23.9613C92.2293 23.6584 92.6465 23.4883 93.0815 23.4883Z" fill="#00BDFF"/>
<path d="M105.009 23.4883H111.697C111.913 23.488 112.126 23.5295 112.325 23.6106C112.524 23.6916 112.705 23.8106 112.858 23.9606C113.01 24.1106 113.131 24.2888 113.213 24.4848C113.295 24.6809 113.338 24.891 113.337 25.1032V31.6767C113.338 31.8889 113.295 32.099 113.213 32.2951C113.131 32.4912 113.01 32.6693 112.858 32.8194C112.705 32.9694 112.524 33.0883 112.325 33.1694C112.126 33.2504 111.913 33.292 111.697 33.2917H105.009C104.794 33.292 104.58 33.2504 104.381 33.1694C104.182 33.0883 104.001 32.9694 103.849 32.8194C103.696 32.6693 103.576 32.4912 103.493 32.2951C103.411 32.099 103.369 31.8889 103.369 31.6767V25.1032C103.369 24.6749 103.542 24.2641 103.85 23.9613C104.157 23.6584 104.574 23.4883 105.009 23.4883Z" fill="#00BDFF"/>
<path d="M116.935 23.4883H123.611C123.827 23.488 124.04 23.5295 124.239 23.6105C124.439 23.6915 124.62 23.8105 124.772 23.9604C124.925 24.1104 125.046 24.2886 125.128 24.4847C125.211 24.6807 125.253 24.8909 125.253 25.1032V31.6767C125.253 31.889 125.211 32.0992 125.128 32.2953C125.046 32.4914 124.925 32.6695 124.772 32.8195C124.62 32.9695 124.439 33.0884 124.239 33.1694C124.04 33.2504 123.827 33.292 123.611 33.2917H116.935C116.72 33.292 116.506 33.2504 116.307 33.1694C116.108 33.0883 115.927 32.9694 115.775 32.8194C115.622 32.6693 115.501 32.4912 115.419 32.2951C115.337 32.099 115.295 31.8889 115.295 31.6767V25.1032C115.295 24.6749 115.468 24.2641 115.775 23.9613C116.083 23.6584 116.5 23.4883 116.935 23.4883Z" fill="#00BDFF"/>
<path d="M128.859 33.2917H135.323C135.727 33.2898 136.117 33.1424 136.418 32.8773C136.72 32.6122 136.913 32.2476 136.96 31.8522C137.247 29.5519 137.247 27.2257 136.96 24.9254C136.912 24.5304 136.719 24.1664 136.418 23.9018C136.116 23.6371 135.727 23.4901 135.323 23.4883H128.859C128.424 23.4883 128.007 23.6584 127.699 23.9613C127.392 24.2641 127.219 24.6749 127.219 25.1032V31.6767C127.219 32.105 127.392 32.5158 127.699 32.8187C128.007 33.1215 128.424 33.2917 128.859 33.2917Z" fill="#00BDFF"/>
<path d="M105.009 35.2266H111.697C111.913 35.2263 112.126 35.2678 112.325 35.3489C112.524 35.4299 112.705 35.5488 112.858 35.6989C113.01 35.8489 113.131 36.027 113.213 36.2231C113.295 36.4192 113.338 36.6293 113.337 36.8415V43.415C113.338 43.6272 113.295 43.8373 113.213 44.0334C113.131 44.2295 113.01 44.4076 112.858 44.5576C112.705 44.7077 112.524 44.8266 112.325 44.9076C112.126 44.9887 111.913 45.0303 111.697 45.0299H105.009C104.794 45.0303 104.58 44.9887 104.381 44.9076C104.182 44.8266 104.001 44.7077 103.849 44.5576C103.696 44.4076 103.576 44.2295 103.493 44.0334C103.411 43.8373 103.369 43.6272 103.369 43.415V36.8415C103.369 36.4132 103.542 36.0024 103.85 35.6996C104.157 35.3967 104.574 35.2266 105.009 35.2266Z" fill="#00BDFF"/>
<path d="M116.935 35.2266H123.611C123.827 35.2263 124.04 35.2678 124.239 35.3488C124.439 35.4298 124.62 35.5487 124.772 35.6987C124.925 35.8487 125.046 36.0268 125.128 36.2229C125.211 36.419 125.253 36.6292 125.253 36.8415V43.415C125.253 43.6273 125.211 43.8375 125.128 44.0336C125.046 44.2297 124.925 44.4078 124.772 44.5578C124.62 44.7078 124.439 44.8267 124.239 44.9077C124.04 44.9887 123.827 45.0303 123.611 45.0299H116.935C116.72 45.0303 116.506 44.9887 116.307 44.9076C116.108 44.8266 115.927 44.7077 115.775 44.5576C115.622 44.4076 115.501 44.2295 115.419 44.0334C115.337 43.8373 115.295 43.6272 115.295 43.415V36.8415C115.295 36.4132 115.468 36.0024 115.775 35.6996C116.083 35.3967 116.5 35.2266 116.935 35.2266Z" fill="#00BDFF"/>
<path d="M128.859 45.0323H130.834C131.1 45.0338 131.362 44.9713 131.598 44.8502C131.834 44.7291 132.036 44.5531 132.187 44.3375C133.684 42.1739 134.869 39.8164 135.708 37.3324C135.787 37.0899 135.807 36.8323 135.766 36.5808C135.724 36.3294 135.623 36.0912 135.47 35.8857C135.317 35.6802 135.117 35.5134 134.885 35.3988C134.654 35.2843 134.399 35.2252 134.14 35.2266H128.859C128.424 35.2266 128.007 35.3964 127.7 35.6987C127.392 36.0011 127.219 36.4112 127.219 36.8391V43.4127C127.218 43.6251 127.261 43.8354 127.343 44.0318C127.425 44.2281 127.546 44.4066 127.698 44.557C127.85 44.7074 128.031 44.8268 128.23 44.9083C128.43 44.9899 128.643 45.032 128.859 45.0323Z" fill="#00BDFF"/>
<path d="M91.4415 48.5876V50.5345C91.4392 50.7957 91.5018 51.0535 91.624 51.2854C91.7462 51.5173 91.9241 51.7163 92.1423 51.8649C94.3402 53.3391 96.7353 54.5059 99.2589 55.3319C99.5049 55.4093 99.766 55.4283 100.021 55.3874C100.276 55.3465 100.517 55.2468 100.726 55.0965C100.934 54.9462 101.103 54.7496 101.219 54.5226C101.336 54.2956 101.396 54.0447 101.395 53.7904V48.5876C101.395 48.3756 101.353 48.1657 101.271 47.9698C101.189 47.7738 101.068 47.5958 100.916 47.4458C100.764 47.2958 100.584 47.1768 100.385 47.0956C100.186 47.0144 99.9727 46.9727 99.7575 46.9727H93.0816C92.6466 46.9727 92.2294 47.1428 91.9218 47.4457C91.6143 47.7485 91.4415 48.1593 91.4415 48.5876Z" fill="#00BDFF"/>
<path d="M103.367 48.5876V54.9524C103.37 55.3504 103.519 55.7338 103.789 56.0307C104.058 56.3277 104.428 56.5176 104.829 56.565C107.165 56.847 109.528 56.847 111.864 56.565C112.265 56.5176 112.635 56.3275 112.903 56.0306C113.172 55.7336 113.321 55.3502 113.323 54.9524V48.5876C113.324 48.3754 113.281 48.1653 113.199 47.9692C113.117 47.7731 112.996 47.595 112.844 47.445C112.691 47.2949 112.51 47.176 112.311 47.095C112.112 47.0139 111.899 46.9723 111.683 46.9727H105.007C104.572 46.9727 104.155 47.1428 103.848 47.4457C103.54 47.7485 103.367 48.1593 103.367 48.5876Z" fill="#00BDFF"/>
<path d="M115.295 48.5876V53.7904C115.294 54.045 115.354 54.2961 115.471 54.5234C115.587 54.7506 115.757 54.9474 115.965 55.0978C116.174 55.2481 116.416 55.3477 116.671 55.3884C116.926 55.4291 117.187 55.4097 117.434 55.3318C119.957 54.5064 122.351 53.3395 124.548 51.8649C124.766 51.7163 124.944 51.5173 125.066 51.2854C125.188 51.0535 125.251 50.7957 125.249 50.5345V48.5876C125.249 48.3756 125.207 48.1657 125.125 47.9698C125.042 47.7738 124.922 47.5958 124.77 47.4458C124.618 47.2958 124.437 47.1768 124.238 47.0956C124.039 47.0144 123.826 46.9727 123.611 46.9727H116.935C116.5 46.9727 116.083 47.1428 115.775 47.4457C115.468 47.7485 115.295 48.1593 115.295 48.5876Z" fill="#00BDFF"/>
</svg>
